<?xml version="1.0" encoding="UTF-8"?>
<!DOCTYPE svg PUBLIC "-//W3C//DTD SVG 1.1//EN" "http://www.w3.org/Graphics/SVG/1.1/DTD/svg11.dtd">
<svg xmlns="http://www.w3.org/2000/svg" version="1.1" width="28px" height="34px" style="shape-rendering:geometricPrecision; text-rendering:geometricPrecision; image-rendering:optimizeQuality; fill-rule:evenodd; clip-rule:evenodd" xmlns:xlink="http://www.w3.org/1999/xlink">
<g><path style="opacity:1" fill="#fee6c7" d="M 5.5,7.5 C 5.67158,6.50838 5.33825,5.84171 4.5,5.5C 4.61071,4.88258 4.94404,4.38258 5.5,4C 9.21134,3.17473 12.878,3.3414 16.5,4.5C 12.5852,4.99261 8.91856,5.99261 5.5,7.5 Z"/></g>
<g><path style="opacity:1" fill="#fef1e1" d="M 4.5,5.5 C 5.33825,5.84171 5.67158,6.50838 5.5,7.5C 5.17075,13.5368 5.50408,19.5368 6.5,25.5C 9.83041,26.0938 13.1637,26.7604 16.5,27.5C 12.878,28.6586 9.21134,28.8253 5.5,28C 5,27.5 4.5,27 4,26.5C 3.17874,19.3209 3.3454,12.3209 4.5,5.5 Z"/></g>
<g><path style="opacity:1" fill="#fccf94" d="M 27.5,14.5 C 27.5,14.8333 27.5,15.1667 27.5,15.5C 22.6778,16.0653 18.1778,15.3987 14,13.5C 13.3292,14.2524 12.4959,14.5858 11.5,14.5C 12.8842,11.8054 14.8842,10.8054 17.5,11.5C 17.0233,12.4776 16.3567,13.3109 15.5,14C 19.4862,14.4988 23.4862,14.6655 27.5,14.5 Z"/></g>
<g><path style="opacity:1" fill="#ffeeda" d="M 27.5,15.5 C 27.5,15.8333 27.5,16.1667 27.5,16.5C 23.1161,16.1744 18.7828,16.5078 14.5,17.5C 14.6236,18.1067 14.9569,18.44 15.5,18.5C 17.332,19.1405 17.6653,20.1405 16.5,21.5C 13.8288,20.3422 11.8288,18.5089 10.5,16C 10.5699,15.2352 10.9033,14.7352 11.5,14.5C 12.4959,14.5858 13.3292,14.2524 14,13.5C 18.1778,15.3987 22.6778,16.0653 27.5,15.5 Z"/></g>
<g><path style="opacity:1" fill="#f7b963" d="M 27.5,16.5 C 27.5,16.8333 27.5,17.1667 27.5,17.5C 23.2984,17.1832 19.2984,17.5166 15.5,18.5C 14.9569,18.44 14.6236,18.1067 14.5,17.5C 18.7828,16.5078 23.1161,16.1744 27.5,16.5 Z"/></g>
</svg>
