<?xml version="1.0" standalone="no"?>
<!DOCTYPE svg PUBLIC "-//W3C//DTD SVG 20010904//EN"
 "http://www.w3.org/TR/2001/REC-SVG-20010904/DTD/svg10.dtd">
<svg version="1.0" xmlns="http://www.w3.org/2000/svg"
 width="38.000000pt" height="35.000000pt" viewBox="0 0 38.000000 35.000000"
 preserveAspectRatio="xMidYMid meet">

<g transform="translate(0.000000,35.000000) scale(0.100000,-0.100000)"
fill="#000000" stroke="none">
<path d="M110 310 c-43 -43 -6 -130 55 -130 35 0 75 42 75 78 0 61 -86 96
-130 52z m100 -21 c29 -52 -26 -107 -75 -75 -27 18 -34 63 -13 84 20 20 76 15
88 -9z"/>
<path d="M104 160 c-32 -13 -64 -59 -64 -91 0 -16 5 -29 10 -29 6 0 10 13 10
28 0 46 40 75 110 80 33 2 60 8 60 13 0 11 -98 11 -126 -1z"/>
<path d="M268 128 c-2 -15 -11 -24 -25 -26 -31 -5 -29 -22 2 -22 18 0 25 -5
25 -20 0 -11 5 -20 10 -20 6 0 10 9 10 20 0 13 7 20 20 20 11 0 20 5 20 10 0
6 -9 10 -20 10 -15 0 -20 7 -20 25 0 31 -17 33 -22 3z"/>
</g>
</svg>
